<mxfile host="app.diagrams.net" agent="Mozilla/5.0 (Windows NT 10.0; Win64; x64) AppleWebKit/537.36 (KHTML, like Gecko) Chrome/134.0.0.0 Safari/537.36" version="26.2.6">
  <diagram id="C5RBs43oDa-KdzZeNtuy" name="Page-1">
    <mxGraphModel dx="1898" dy="1022" grid="1" gridSize="10" guides="1" tooltips="1" connect="1" arrows="1" fold="1" page="1" pageScale="1" pageWidth="827" pageHeight="1169" math="0" shadow="0">
      <root>
        <mxCell id="WIyWlLk6GJQsqaUBKTNV-0" />
        <mxCell id="WIyWlLk6GJQsqaUBKTNV-1" parent="WIyWlLk6GJQsqaUBKTNV-0" />
        <mxCell id="IW7OCwPcUv7R2dquPZn1-0" value="Fim" style="strokeWidth=2;html=1;shape=mxgraph.flowchart.terminator;whiteSpace=wrap;strokeColor=#D0CEE2;fontColor=#1A1A1A;fillColor=#5D7F99;" vertex="1" parent="WIyWlLk6GJQsqaUBKTNV-1">
          <mxGeometry x="288" y="974" width="100" height="60" as="geometry" />
        </mxCell>
        <mxCell id="IW7OCwPcUv7R2dquPZn1-1" value="Inicio" style="strokeWidth=2;html=1;shape=mxgraph.flowchart.terminator;whiteSpace=wrap;strokeColor=#D0CEE2;fontColor=#1A1A1A;fillColor=#5D7F99;" vertex="1" parent="WIyWlLk6GJQsqaUBKTNV-1">
          <mxGeometry x="288" y="134" width="100" height="60" as="geometry" />
        </mxCell>
        <mxCell id="IW7OCwPcUv7R2dquPZn1-23" style="edgeStyle=orthogonalEdgeStyle;rounded=0;orthogonalLoop=1;jettySize=auto;html=1;entryX=0.5;entryY=0;entryDx=0;entryDy=0;strokeColor=#736CA8;fontColor=#1A1A1A;" edge="1" parent="WIyWlLk6GJQsqaUBKTNV-1" source="IW7OCwPcUv7R2dquPZn1-2" target="IW7OCwPcUv7R2dquPZn1-3">
          <mxGeometry relative="1" as="geometry" />
        </mxCell>
        <mxCell id="IW7OCwPcUv7R2dquPZn1-2" value="Ler Salario" style="shape=manualInput;whiteSpace=wrap;html=1;strokeColor=#D0CEE2;fontColor=#1A1A1A;fillColor=#5D7F99;" vertex="1" parent="WIyWlLk6GJQsqaUBKTNV-1">
          <mxGeometry x="298" y="234" width="80" height="80" as="geometry" />
        </mxCell>
        <mxCell id="IW7OCwPcUv7R2dquPZn1-5" style="edgeStyle=orthogonalEdgeStyle;rounded=0;orthogonalLoop=1;jettySize=auto;html=1;entryX=0.5;entryY=0;entryDx=0;entryDy=0;strokeColor=#736CA8;fontColor=#1A1A1A;" edge="1" parent="WIyWlLk6GJQsqaUBKTNV-1" source="IW7OCwPcUv7R2dquPZn1-3" target="IW7OCwPcUv7R2dquPZn1-4">
          <mxGeometry relative="1" as="geometry" />
        </mxCell>
        <mxCell id="IW7OCwPcUv7R2dquPZn1-13" value="Verdadeiro" style="edgeLabel;html=1;align=center;verticalAlign=middle;resizable=0;points=[];strokeColor=#D0CEE2;fontColor=#1A1A1A;fillColor=#5D7F99;" vertex="1" connectable="0" parent="IW7OCwPcUv7R2dquPZn1-5">
          <mxGeometry x="0.4651" y="2" relative="1" as="geometry">
            <mxPoint as="offset" />
          </mxGeometry>
        </mxCell>
        <mxCell id="IW7OCwPcUv7R2dquPZn1-7" style="edgeStyle=orthogonalEdgeStyle;rounded=0;orthogonalLoop=1;jettySize=auto;html=1;entryX=0.5;entryY=0;entryDx=0;entryDy=0;strokeColor=#736CA8;fontColor=#1A1A1A;" edge="1" parent="WIyWlLk6GJQsqaUBKTNV-1" source="IW7OCwPcUv7R2dquPZn1-3" target="IW7OCwPcUv7R2dquPZn1-6">
          <mxGeometry relative="1" as="geometry" />
        </mxCell>
        <mxCell id="IW7OCwPcUv7R2dquPZn1-12" value="Falso" style="edgeLabel;html=1;align=center;verticalAlign=middle;resizable=0;points=[];strokeColor=#D0CEE2;fontColor=#1A1A1A;fillColor=#5D7F99;" vertex="1" connectable="0" parent="IW7OCwPcUv7R2dquPZn1-7">
          <mxGeometry x="0.3366" y="-2" relative="1" as="geometry">
            <mxPoint as="offset" />
          </mxGeometry>
        </mxCell>
        <mxCell id="IW7OCwPcUv7R2dquPZn1-3" value="Salario &amp;gt;= 800?" style="rhombus;whiteSpace=wrap;html=1;strokeColor=#D0CEE2;fontColor=#1A1A1A;fillColor=#5D7F99;" vertex="1" parent="WIyWlLk6GJQsqaUBKTNV-1">
          <mxGeometry x="275" y="354" width="126" height="80" as="geometry" />
        </mxCell>
        <mxCell id="IW7OCwPcUv7R2dquPZn1-10" style="edgeStyle=orthogonalEdgeStyle;rounded=0;orthogonalLoop=1;jettySize=auto;html=1;entryX=0.5;entryY=0;entryDx=0;entryDy=0;strokeColor=#736CA8;fontColor=#1A1A1A;" edge="1" parent="WIyWlLk6GJQsqaUBKTNV-1" source="IW7OCwPcUv7R2dquPZn1-4" target="IW7OCwPcUv7R2dquPZn1-9">
          <mxGeometry relative="1" as="geometry" />
        </mxCell>
        <mxCell id="IW7OCwPcUv7R2dquPZn1-15" value="Verdadeiro" style="edgeLabel;html=1;align=center;verticalAlign=middle;resizable=0;points=[];strokeColor=#D0CEE2;fontColor=#1A1A1A;fillColor=#5D7F99;" vertex="1" connectable="0" parent="IW7OCwPcUv7R2dquPZn1-10">
          <mxGeometry x="0.3844" y="3" relative="1" as="geometry">
            <mxPoint as="offset" />
          </mxGeometry>
        </mxCell>
        <mxCell id="IW7OCwPcUv7R2dquPZn1-11" style="edgeStyle=orthogonalEdgeStyle;rounded=0;orthogonalLoop=1;jettySize=auto;html=1;entryX=0.5;entryY=0;entryDx=0;entryDy=0;strokeColor=#736CA8;fontColor=#1A1A1A;" edge="1" parent="WIyWlLk6GJQsqaUBKTNV-1" source="IW7OCwPcUv7R2dquPZn1-4" target="IW7OCwPcUv7R2dquPZn1-8">
          <mxGeometry relative="1" as="geometry" />
        </mxCell>
        <mxCell id="IW7OCwPcUv7R2dquPZn1-14" value="Falso" style="edgeLabel;html=1;align=center;verticalAlign=middle;resizable=0;points=[];strokeColor=#D0CEE2;fontColor=#1A1A1A;fillColor=#5D7F99;" vertex="1" connectable="0" parent="IW7OCwPcUv7R2dquPZn1-11">
          <mxGeometry x="0.4289" y="-1" relative="1" as="geometry">
            <mxPoint as="offset" />
          </mxGeometry>
        </mxCell>
        <mxCell id="IW7OCwPcUv7R2dquPZn1-4" value="Salario &amp;gt;= 1500?" style="rhombus;whiteSpace=wrap;html=1;strokeColor=#D0CEE2;fontColor=#1A1A1A;fillColor=#5D7F99;" vertex="1" parent="WIyWlLk6GJQsqaUBKTNV-1">
          <mxGeometry x="434" y="464" width="126" height="80" as="geometry" />
        </mxCell>
        <mxCell id="IW7OCwPcUv7R2dquPZn1-20" style="edgeStyle=orthogonalEdgeStyle;rounded=0;orthogonalLoop=1;jettySize=auto;html=1;entryX=0;entryY=0.5;entryDx=0;entryDy=0;strokeColor=#736CA8;fontColor=#1A1A1A;" edge="1" parent="WIyWlLk6GJQsqaUBKTNV-1" source="IW7OCwPcUv7R2dquPZn1-6" target="IW7OCwPcUv7R2dquPZn1-19">
          <mxGeometry relative="1" as="geometry">
            <Array as="points">
              <mxPoint x="194" y="809" />
            </Array>
          </mxGeometry>
        </mxCell>
        <mxCell id="IW7OCwPcUv7R2dquPZn1-6" value="SalarioReajustado = Salario * 1.15" style="rounded=0;whiteSpace=wrap;html=1;strokeColor=#D0CEE2;fontColor=#1A1A1A;fillColor=#5D7F99;" vertex="1" parent="WIyWlLk6GJQsqaUBKTNV-1">
          <mxGeometry x="134" y="474" width="120" height="60" as="geometry" />
        </mxCell>
        <mxCell id="IW7OCwPcUv7R2dquPZn1-17" style="edgeStyle=orthogonalEdgeStyle;rounded=0;orthogonalLoop=1;jettySize=auto;html=1;entryX=0;entryY=0.5;entryDx=0;entryDy=0;strokeColor=#736CA8;fontColor=#1A1A1A;" edge="1" parent="WIyWlLk6GJQsqaUBKTNV-1" source="IW7OCwPcUv7R2dquPZn1-8" target="IW7OCwPcUv7R2dquPZn1-16">
          <mxGeometry relative="1" as="geometry">
            <Array as="points">
              <mxPoint x="354" y="714" />
              <mxPoint x="472" y="714" />
            </Array>
          </mxGeometry>
        </mxCell>
        <mxCell id="IW7OCwPcUv7R2dquPZn1-8" value="SalarioReajustado = Salario * 1.1" style="rounded=0;whiteSpace=wrap;html=1;strokeColor=#D0CEE2;fontColor=#1A1A1A;fillColor=#5D7F99;" vertex="1" parent="WIyWlLk6GJQsqaUBKTNV-1">
          <mxGeometry x="288" y="584" width="120" height="60" as="geometry" />
        </mxCell>
        <mxCell id="IW7OCwPcUv7R2dquPZn1-18" style="edgeStyle=orthogonalEdgeStyle;rounded=0;orthogonalLoop=1;jettySize=auto;html=1;entryX=1;entryY=0.5;entryDx=0;entryDy=0;strokeColor=#736CA8;fontColor=#1A1A1A;" edge="1" parent="WIyWlLk6GJQsqaUBKTNV-1" source="IW7OCwPcUv7R2dquPZn1-9" target="IW7OCwPcUv7R2dquPZn1-16">
          <mxGeometry relative="1" as="geometry">
            <Array as="points">
              <mxPoint x="634" y="714" />
              <mxPoint x="522" y="714" />
            </Array>
          </mxGeometry>
        </mxCell>
        <mxCell id="IW7OCwPcUv7R2dquPZn1-9" value="SalarioReajustado = Salario * 1.05" style="rounded=0;whiteSpace=wrap;html=1;strokeColor=#D0CEE2;fontColor=#1A1A1A;fillColor=#5D7F99;" vertex="1" parent="WIyWlLk6GJQsqaUBKTNV-1">
          <mxGeometry x="574" y="584" width="120" height="60" as="geometry" />
        </mxCell>
        <mxCell id="IW7OCwPcUv7R2dquPZn1-21" style="edgeStyle=orthogonalEdgeStyle;rounded=0;orthogonalLoop=1;jettySize=auto;html=1;entryX=1;entryY=0.5;entryDx=0;entryDy=0;strokeColor=#736CA8;fontColor=#1A1A1A;" edge="1" parent="WIyWlLk6GJQsqaUBKTNV-1" source="IW7OCwPcUv7R2dquPZn1-16" target="IW7OCwPcUv7R2dquPZn1-19">
          <mxGeometry relative="1" as="geometry">
            <Array as="points">
              <mxPoint x="497" y="809" />
            </Array>
          </mxGeometry>
        </mxCell>
        <mxCell id="IW7OCwPcUv7R2dquPZn1-16" value="" style="ellipse;whiteSpace=wrap;html=1;aspect=fixed;strokeColor=#D0CEE2;fontColor=#1A1A1A;fillColor=#5D7F99;" vertex="1" parent="WIyWlLk6GJQsqaUBKTNV-1">
          <mxGeometry x="472" y="684" width="50" height="50" as="geometry" />
        </mxCell>
        <mxCell id="IW7OCwPcUv7R2dquPZn1-19" value="" style="ellipse;whiteSpace=wrap;html=1;aspect=fixed;strokeColor=#D0CEE2;fontColor=#1A1A1A;fillColor=#5D7F99;" vertex="1" parent="WIyWlLk6GJQsqaUBKTNV-1">
          <mxGeometry x="313" y="784" width="50" height="50" as="geometry" />
        </mxCell>
        <mxCell id="IW7OCwPcUv7R2dquPZn1-22" style="edgeStyle=orthogonalEdgeStyle;rounded=0;orthogonalLoop=1;jettySize=auto;html=1;entryX=0.5;entryY=0.183;entryDx=0;entryDy=0;entryPerimeter=0;strokeColor=#736CA8;fontColor=#1A1A1A;" edge="1" parent="WIyWlLk6GJQsqaUBKTNV-1" source="IW7OCwPcUv7R2dquPZn1-1" target="IW7OCwPcUv7R2dquPZn1-2">
          <mxGeometry relative="1" as="geometry" />
        </mxCell>
        <mxCell id="IW7OCwPcUv7R2dquPZn1-24" value="Mostrar SalarioReajustado" style="shape=display;whiteSpace=wrap;html=1;strokeColor=#D0CEE2;fontColor=#1A1A1A;fillColor=#5D7F99;" vertex="1" parent="WIyWlLk6GJQsqaUBKTNV-1">
          <mxGeometry x="243" y="884" width="190" height="40" as="geometry" />
        </mxCell>
        <mxCell id="IW7OCwPcUv7R2dquPZn1-25" style="edgeStyle=orthogonalEdgeStyle;rounded=0;orthogonalLoop=1;jettySize=auto;html=1;entryX=0.5;entryY=-0.045;entryDx=0;entryDy=0;entryPerimeter=0;strokeColor=#736CA8;fontColor=#1A1A1A;" edge="1" parent="WIyWlLk6GJQsqaUBKTNV-1" source="IW7OCwPcUv7R2dquPZn1-19" target="IW7OCwPcUv7R2dquPZn1-24">
          <mxGeometry relative="1" as="geometry" />
        </mxCell>
        <mxCell id="IW7OCwPcUv7R2dquPZn1-26" style="edgeStyle=orthogonalEdgeStyle;rounded=0;orthogonalLoop=1;jettySize=auto;html=1;entryX=0.5;entryY=0;entryDx=0;entryDy=0;entryPerimeter=0;strokeColor=#736CA8;fontColor=#1A1A1A;" edge="1" parent="WIyWlLk6GJQsqaUBKTNV-1" source="IW7OCwPcUv7R2dquPZn1-24" target="IW7OCwPcUv7R2dquPZn1-0">
          <mxGeometry relative="1" as="geometry" />
        </mxCell>
      </root>
    </mxGraphModel>
  </diagram>
</mxfile>
